####
#
# OBJ File Generated by Meshlab
#
####
# Object base.obj
#
# Vertices: 110
# Faces: 216
#
####
vn 0.000000 -6.283184 0.000000
v 0.000000 0.000000 -0.000000 0.831373 0.831373 0.831373
vn 2.907284 -2.792536 -1.058167
v 11.829400 0.000000 -4.305500 0.831373 0.831373 0.831373
vn 3.093862 -2.792516 0.000000
v 12.588600 0.000000 -0.000000 0.831373 0.831373 0.831373
vn 2.370035 -2.792518 -1.988697
v 9.643400 0.000000 -8.091800 0.831373 0.831373 0.831373
vn 1.546926 -2.792531 -2.679370
v 6.294300 0.000000 -10.902000 0.831373 0.831373 0.831373
vn 0.537244 -2.792527 -3.046862
v 2.186000 0.000000 -12.397300 0.831373 0.831373 0.831373
vn -0.537244 -2.792527 -3.046862
v -2.186000 0.000000 -12.397300 0.831373 0.831373 0.831373
vn -1.546927 -2.792531 -2.679371
v -6.294300 0.000000 -10.902000 0.831373 0.831373 0.831373
vn -2.370035 -2.792518 -1.988697
v -9.643400 0.000000 -8.091800 0.831373 0.831373 0.831373
vn -2.907284 -2.792536 -1.058167
v -11.829400 0.000000 -4.305500 0.831373 0.831373 0.831373
vn -3.093862 -2.792516 -0.000000
v -12.588600 0.000000 -0.000000 0.831373 0.831373 0.831373
vn -2.907284 -2.792536 1.058167
v -11.829400 0.000000 4.305500 0.831373 0.831373 0.831373
vn -2.370035 -2.792518 1.988697
v -9.643400 0.000000 8.091800 0.831373 0.831373 0.831373
vn -1.546926 -2.792531 2.679370
v -6.294300 0.000000 10.902000 0.831373 0.831373 0.831373
vn -0.537244 -2.792527 3.046862
v -2.186000 0.000000 12.397300 0.831373 0.831373 0.831373
vn 0.537244 -2.792527 3.046862
v 2.186000 0.000000 12.397300 0.831373 0.831373 0.831373
vn 1.546927 -2.792531 2.679371
v 6.294300 0.000000 10.902000 0.831373 0.831373 0.831373
vn 2.370035 -2.792518 1.988697
v 9.643400 0.000000 8.091800 0.831373 0.831373 0.831373
vn 2.907284 -2.792536 1.058167
v 11.829400 0.000000 4.305500 0.831373 0.831373 0.831373
vn 5.814567 0.000000 -2.116333
v 11.829400 0.762100 -4.305500 0.831373 0.831373 0.831373
vn 6.187724 0.000000 -0.000000
v 12.588600 0.762100 -0.000000 0.831373 0.831373 0.831373
vn 4.740070 0.000000 -3.977395
v 9.643400 0.762100 -8.091800 0.831373 0.831373 0.831373
vn 3.093853 0.000000 -5.358741
v 6.294300 0.762100 -10.902000 0.831373 0.831373 0.831373
vn 1.074488 0.000000 -6.093723
v 2.186000 0.762100 -12.397300 0.831373 0.831373 0.831373
vn -1.074488 0.000000 -6.093724
v -2.186000 0.762100 -12.397300 0.831373 0.831373 0.831373
vn -3.093853 0.000000 -5.358741
v -6.294300 0.762100 -10.902000 0.831373 0.831373 0.831373
vn -4.740070 0.000000 -3.977395
v -9.643400 0.762100 -8.091800 0.831373 0.831373 0.831373
vn -5.814568 0.000000 -2.116334
v -11.829400 0.762100 -4.305500 0.831373 0.831373 0.831373
vn -6.187724 0.000000 0.000000
v -12.588600 0.762100 -0.000000 0.831373 0.831373 0.831373
vn -5.814567 0.000000 2.116333
v -11.829400 0.762100 4.305500 0.831373 0.831373 0.831373
vn -4.740070 0.000000 3.977395
v -9.643400 0.762100 8.091800 0.831373 0.831373 0.831373
vn -3.093853 0.000000 5.358741
v -6.294300 0.762100 10.902000 0.831373 0.831373 0.831373
vn -1.074488 0.000000 6.093723
v -2.186000 0.762100 12.397300 0.831373 0.831373 0.831373
vn 1.074488 0.000000 6.093724
v 2.186000 0.762100 12.397300 0.831373 0.831373 0.831373
vn 3.093853 0.000000 5.358741
v 6.294300 0.762100 10.902000 0.831373 0.831373 0.831373
vn 4.740070 0.000000 3.977395
v 9.643400 0.762100 8.091800 0.831373 0.831373 0.831373
vn 5.814568 0.000000 2.116334
v 11.829400 0.762100 4.305500 0.831373 0.831373 0.831373
vn 5.814568 0.000000 -2.116334
v 11.829400 1.524100 -4.305500 0.831373 0.831373 0.831373
vn 6.187724 0.000000 0.000000
v 12.588600 1.524100 -0.000000 0.831373 0.831373 0.831373
vn 4.740070 0.000000 -3.977395
v 9.643400 1.524100 -8.091800 0.831373 0.831373 0.831373
vn 3.093853 0.000000 -5.358740
v 6.294300 1.524100 -10.902000 0.831373 0.831373 0.831373
vn 1.074488 0.000000 -6.093723
v 2.186000 1.524100 -12.397300 0.831373 0.831373 0.831373
vn -1.074488 0.000000 -6.093724
v -2.186000 1.524100 -12.397300 0.831373 0.831373 0.831373
vn -3.093853 0.000000 -5.358741
v -6.294300 1.524100 -10.902000 0.831373 0.831373 0.831373
vn -4.740071 0.000000 -3.977395
v -9.643400 1.524100 -8.091800 0.831373 0.831373 0.831373
vn -5.814567 0.000000 -2.116334
v -11.829400 1.524100 -4.305500 0.831373 0.831373 0.831373
vn -6.187724 0.000000 -0.000000
v -12.588600 1.524100 -0.000000 0.831373 0.831373 0.831373
vn -5.814568 0.000000 2.116334
v -11.829400 1.524100 4.305500 0.831373 0.831373 0.831373
vn -4.740070 0.000000 3.977395
v -9.643400 1.524100 8.091800 0.831373 0.831373 0.831373
vn -3.093853 0.000000 5.358740
v -6.294300 1.524100 10.902000 0.831373 0.831373 0.831373
vn -1.074488 0.000000 6.093723
v -2.186000 1.524100 12.397300 0.831373 0.831373 0.831373
vn 1.074488 0.000000 6.093724
v 2.186000 1.524100 12.397300 0.831373 0.831373 0.831373
vn 3.093853 0.000000 5.358741
v 6.294300 1.524100 10.902000 0.831373 0.831373 0.831373
vn 4.740071 0.000000 3.977395
v 9.643400 1.524100 8.091800 0.831373 0.831373 0.831373
vn 5.814567 0.000000 2.116334
v 11.829400 1.524100 4.305500 0.831373 0.831373 0.831373
vn 5.814567 0.000000 -2.116334
v 11.829400 2.286200 -4.305500 0.831373 0.831373 0.831373
vn 6.187723 0.000000 -0.000000
v 12.588600 2.286200 -0.000000 0.831373 0.831373 0.831373
vn 4.740070 0.000000 -3.977394
v 9.643400 2.286200 -8.091800 0.831373 0.831373 0.831373
vn 3.093853 0.000000 -5.358740
v 6.294300 2.286200 -10.902000 0.831373 0.831373 0.831373
vn 1.074488 0.000000 -6.093723
v 2.186000 2.286200 -12.397300 0.831373 0.831373 0.831373
vn -1.074488 0.000000 -6.093724
v -2.186000 2.286200 -12.397300 0.831373 0.831373 0.831373
vn -3.093853 0.000000 -5.358741
v -6.294300 2.286200 -10.902000 0.831373 0.831373 0.831373
vn -4.740071 0.000000 -3.977395
v -9.643400 2.286200 -8.091800 0.831373 0.831373 0.831373
vn -5.814567 0.000000 -2.116334
v -11.829400 2.286200 -4.305500 0.831373 0.831373 0.831373
vn -6.187724 0.000000 0.000000
v -12.588600 2.286200 -0.000000 0.831373 0.831373 0.831373
vn -5.814567 0.000000 2.116334
v -11.829400 2.286200 4.305500 0.831373 0.831373 0.831373
vn -4.740070 0.000000 3.977394
v -9.643400 2.286200 8.091800 0.831373 0.831373 0.831373
vn -3.093853 0.000000 5.358740
v -6.294300 2.286200 10.902000 0.831373 0.831373 0.831373
vn -1.074488 0.000000 6.093723
v -2.186000 2.286200 12.397300 0.831373 0.831373 0.831373
vn 1.074488 0.000000 6.093724
v 2.186000 2.286200 12.397300 0.831373 0.831373 0.831373
vn 3.093853 0.000000 5.358741
v 6.294300 2.286200 10.902000 0.831373 0.831373 0.831373
vn 4.740071 0.000000 3.977395
v 9.643400 2.286200 8.091800 0.831373 0.831373 0.831373
vn 5.814567 0.000000 2.116334
v 11.829400 2.286200 4.305500 0.831373 0.831373 0.831373
vn 5.814567 0.000000 -2.116334
v 11.829400 3.048300 -4.305500 0.831373 0.831373 0.831373
vn 6.187723 0.000000 0.000000
v 12.588600 3.048300 -0.000000 0.831373 0.831373 0.831373
vn 4.740070 0.000000 -3.977395
v 9.643400 3.048300 -8.091800 0.831373 0.831373 0.831373
vn 3.093853 0.000000 -5.358741
v 6.294300 3.048300 -10.902000 0.831373 0.831373 0.831373
vn 1.074488 0.000000 -6.093723
v 2.186000 3.048300 -12.397300 0.831373 0.831373 0.831373
vn -1.074488 0.000000 -6.093724
v -2.186000 3.048300 -12.397300 0.831373 0.831373 0.831373
vn -3.093853 0.000000 -5.358741
v -6.294300 3.048300 -10.902000 0.831373 0.831373 0.831373
vn -4.740070 0.000000 -3.977395
v -9.643400 3.048300 -8.091800 0.831373 0.831373 0.831373
vn -5.814567 0.000000 -2.116334
v -11.829400 3.048300 -4.305500 0.831373 0.831373 0.831373
vn -6.187724 0.000000 0.000000
v -12.588600 3.048300 -0.000000 0.831373 0.831373 0.831373
vn -5.814567 0.000000 2.116334
v -11.829400 3.048300 4.305500 0.831373 0.831373 0.831373
vn -4.740070 0.000000 3.977395
v -9.643400 3.048300 8.091800 0.831373 0.831373 0.831373
vn -3.093853 0.000000 5.358741
v -6.294300 3.048300 10.902000 0.831373 0.831373 0.831373
vn -1.074488 0.000000 6.093723
v -2.186000 3.048300 12.397300 0.831373 0.831373 0.831373
vn 1.074488 0.000000 6.093724
v 2.186000 3.048300 12.397300 0.831373 0.831373 0.831373
vn 3.093853 0.000000 5.358741
v 6.294300 3.048300 10.902000 0.831373 0.831373 0.831373
vn 4.740070 0.000000 3.977395
v 9.643400 3.048300 8.091800 0.831373 0.831373 0.831373
vn 5.814567 0.000000 2.116334
v 11.829400 3.048300 4.305500 0.831373 0.831373 0.831373
vn 2.907284 2.792536 -1.058167
v 11.829400 3.810400 -4.305500 0.831373 0.831373 0.831373
vn 3.093862 2.792516 -0.000000
v 12.588600 3.810400 -0.000000 0.831373 0.831373 0.831373
vn 2.370035 2.792518 -1.988697
v 9.643400 3.810400 -8.091800 0.831373 0.831373 0.831373
vn 1.546927 2.792531 -2.679371
v 6.294300 3.810400 -10.902000 0.831373 0.831373 0.831373
vn 0.537244 2.792527 -3.046862
v 2.186000 3.810400 -12.397300 0.831373 0.831373 0.831373
vn -0.537244 2.792527 -3.046862
v -2.186000 3.810400 -12.397300 0.831373 0.831373 0.831373
vn -1.546926 2.792531 -2.679370
v -6.294300 3.810400 -10.902000 0.831373 0.831373 0.831373
vn -2.370035 2.792518 -1.988698
v -9.643400 3.810400 -8.091800 0.831373 0.831373 0.831373
vn -2.907284 2.792536 -1.058167
v -11.829400 3.810400 -4.305500 0.831373 0.831373 0.831373
vn -3.093862 2.792516 0.000000
v -12.588600 3.810400 -0.000000 0.831373 0.831373 0.831373
vn -2.907284 2.792536 1.058167
v -11.829400 3.810400 4.305500 0.831373 0.831373 0.831373
vn -2.370035 2.792518 1.988697
v -9.643400 3.810400 8.091800 0.831373 0.831373 0.831373
vn -1.546927 2.792531 2.679371
v -6.294300 3.810400 10.902000 0.831373 0.831373 0.831373
vn -0.537244 2.792527 3.046862
v -2.186000 3.810400 12.397300 0.831373 0.831373 0.831373
vn 0.537244 2.792527 3.046862
v 2.186000 3.810400 12.397300 0.831373 0.831373 0.831373
vn 1.546926 2.792531 2.679370
v 6.294300 3.810400 10.902000 0.831373 0.831373 0.831373
vn 2.370035 2.792518 1.988698
v 9.643400 3.810400 8.091800 0.831373 0.831373 0.831373
vn 2.907284 2.792536 1.058167
v 11.829400 3.810400 4.305500 0.831373 0.831373 0.831373
vn 0.000000 6.283184 0.000000
v 0.000000 3.810400 -0.000000 0.831373 0.831373 0.831373
# 110 vertices, 0 vertices normals

f 1//1 2//2 3//3
f 1//1 4//4 2//2
f 1//1 5//5 4//4
f 1//1 6//6 5//5
f 1//1 7//7 6//6
f 1//1 8//8 7//7
f 1//1 9//9 8//8
f 1//1 10//10 9//9
f 1//1 11//11 10//10
f 1//1 12//12 11//11
f 1//1 13//13 12//12
f 1//1 14//14 13//13
f 1//1 15//15 14//14
f 1//1 16//16 15//15
f 1//1 17//17 16//16
f 1//1 18//18 17//17
f 1//1 19//19 18//18
f 1//1 3//3 19//19
f 3//3 20//20 21//21
f 3//3 2//2 20//20
f 2//2 22//22 20//20
f 2//2 4//4 22//22
f 4//4 23//23 22//22
f 4//4 5//5 23//23
f 5//5 24//24 23//23
f 5//5 6//6 24//24
f 6//6 25//25 24//24
f 6//6 7//7 25//25
f 7//7 26//26 25//25
f 7//7 8//8 26//26
f 8//8 27//27 26//26
f 8//8 9//9 27//27
f 9//9 28//28 27//27
f 9//9 10//10 28//28
f 10//10 29//29 28//28
f 10//10 11//11 29//29
f 11//11 30//30 29//29
f 11//11 12//12 30//30
f 12//12 31//31 30//30
f 12//12 13//13 31//31
f 13//13 32//32 31//31
f 13//13 14//14 32//32
f 14//14 33//33 32//32
f 14//14 15//15 33//33
f 15//15 34//34 33//33
f 15//15 16//16 34//34
f 16//16 35//35 34//34
f 16//16 17//17 35//35
f 17//17 36//36 35//35
f 17//17 18//18 36//36
f 18//18 37//37 36//36
f 18//18 19//19 37//37
f 19//19 21//21 37//37
f 19//19 3//3 21//21
f 21//21 38//38 39//39
f 21//21 20//20 38//38
f 20//20 40//40 38//38
f 20//20 22//22 40//40
f 22//22 41//41 40//40
f 22//22 23//23 41//41
f 23//23 42//42 41//41
f 23//23 24//24 42//42
f 24//24 43//43 42//42
f 24//24 25//25 43//43
f 25//25 44//44 43//43
f 25//25 26//26 44//44
f 26//26 45//45 44//44
f 26//26 27//27 45//45
f 27//27 46//46 45//45
f 27//27 28//28 46//46
f 28//28 47//47 46//46
f 28//28 29//29 47//47
f 29//29 48//48 47//47
f 29//29 30//30 48//48
f 30//30 49//49 48//48
f 30//30 31//31 49//49
f 31//31 50//50 49//49
f 31//31 32//32 50//50
f 32//32 51//51 50//50
f 32//32 33//33 51//51
f 33//33 52//52 51//51
f 33//33 34//34 52//52
f 34//34 53//53 52//52
f 34//34 35//35 53//53
f 35//35 54//54 53//53
f 35//35 36//36 54//54
f 36//36 55//55 54//54
f 36//36 37//37 55//55
f 37//37 39//39 55//55
f 37//37 21//21 39//39
f 39//39 56//56 57//57
f 39//39 38//38 56//56
f 38//38 58//58 56//56
f 38//38 40//40 58//58
f 40//40 59//59 58//58
f 40//40 41//41 59//59
f 41//41 60//60 59//59
f 41//41 42//42 60//60
f 42//42 61//61 60//60
f 42//42 43//43 61//61
f 43//43 62//62 61//61
f 43//43 44//44 62//62
f 44//44 63//63 62//62
f 44//44 45//45 63//63
f 45//45 64//64 63//63
f 45//45 46//46 64//64
f 46//46 65//65 64//64
f 46//46 47//47 65//65
f 47//47 66//66 65//65
f 47//47 48//48 66//66
f 48//48 67//67 66//66
f 48//48 49//49 67//67
f 49//49 68//68 67//67
f 49//49 50//50 68//68
f 50//50 69//69 68//68
f 50//50 51//51 69//69
f 51//51 70//70 69//69
f 51//51 52//52 70//70
f 52//52 71//71 70//70
f 52//52 53//53 71//71
f 53//53 72//72 71//71
f 53//53 54//54 72//72
f 54//54 73//73 72//72
f 54//54 55//55 73//73
f 55//55 57//57 73//73
f 55//55 39//39 57//57
f 57//57 74//74 75//75
f 57//57 56//56 74//74
f 56//56 76//76 74//74
f 56//56 58//58 76//76
f 58//58 77//77 76//76
f 58//58 59//59 77//77
f 59//59 78//78 77//77
f 59//59 60//60 78//78
f 60//60 79//79 78//78
f 60//60 61//61 79//79
f 61//61 80//80 79//79
f 61//61 62//62 80//80
f 62//62 81//81 80//80
f 62//62 63//63 81//81
f 63//63 82//82 81//81
f 63//63 64//64 82//82
f 64//64 83//83 82//82
f 64//64 65//65 83//83
f 65//65 84//84 83//83
f 65//65 66//66 84//84
f 66//66 85//85 84//84
f 66//66 67//67 85//85
f 67//67 86//86 85//85
f 67//67 68//68 86//86
f 68//68 87//87 86//86
f 68//68 69//69 87//87
f 69//69 88//88 87//87
f 69//69 70//70 88//88
f 70//70 89//89 88//88
f 70//70 71//71 89//89
f 71//71 90//90 89//89
f 71//71 72//72 90//90
f 72//72 91//91 90//90
f 72//72 73//73 91//91
f 73//73 75//75 91//91
f 73//73 57//57 75//75
f 75//75 92//92 93//93
f 75//75 74//74 92//92
f 74//74 94//94 92//92
f 74//74 76//76 94//94
f 76//76 95//95 94//94
f 76//76 77//77 95//95
f 77//77 96//96 95//95
f 77//77 78//78 96//96
f 78//78 97//97 96//96
f 78//78 79//79 97//97
f 79//79 98//98 97//97
f 79//79 80//80 98//98
f 80//80 99//99 98//98
f 80//80 81//81 99//99
f 81//81 100//100 99//99
f 81//81 82//82 100//100
f 82//82 101//101 100//100
f 82//82 83//83 101//101
f 83//83 102//102 101//101
f 83//83 84//84 102//102
f 84//84 103//103 102//102
f 84//84 85//85 103//103
f 85//85 104//104 103//103
f 85//85 86//86 104//104
f 86//86 105//105 104//104
f 86//86 87//87 105//105
f 87//87 106//106 105//105
f 87//87 88//88 106//106
f 88//88 107//107 106//106
f 88//88 89//89 107//107
f 89//89 108//108 107//107
f 89//89 90//90 108//108
f 90//90 109//109 108//108
f 90//90 91//91 109//109
f 91//91 93//93 109//109
f 91//91 75//75 93//93
f 110//110 93//93 92//92
f 110//110 92//92 94//94
f 110//110 94//94 95//95
f 110//110 95//95 96//96
f 110//110 96//96 97//97
f 110//110 97//97 98//98
f 110//110 98//98 99//99
f 110//110 99//99 100//100
f 110//110 100//100 101//101
f 110//110 101//101 102//102
f 110//110 102//102 103//103
f 110//110 103//103 104//104
f 110//110 104//104 105//105
f 110//110 105//105 106//106
f 110//110 106//106 107//107
f 110//110 107//107 108//108
f 110//110 108//108 109//109
f 110//110 109//109 93//93
# 216 faces, 0 coords texture

# End of File
