####
#
# OBJ File Generated by Meshlab
#
####
# Object star.obj
#
# Vertices: 162
# Faces: 320
#
####
vn 0.181900 0.975200 0.126300
v -0.067600 3.635500 -0.000000 1.000000 0.917647 0.000000
vn 0.103300 0.852400 -0.512500
v 0.959100 3.479500 -0.000000 1.000000 0.917647 0.000000
vn 0.324600 0.857400 -0.399400
v 0.277300 3.349100 -0.853300 1.000000 0.917647 0.000000
vn 0.698500 0.591300 -0.403100
v 1.726100 3.014900 -0.000000 1.000000 0.917647 0.000000
vn 0.409200 0.828400 -0.382500
v 1.187900 2.936700 -0.863100 1.000000 0.917647 0.000000
vn 0.223400 0.811800 -0.539500
v 0.533400 2.792900 -1.641600 1.000000 0.917647 0.000000
vn 0.793400 0.606600 -0.050200
v 2.423600 2.214900 -0.000000 1.000000 0.917647 0.000000
vn 0.629000 0.743300 -0.227700
v 2.028600 2.430900 -0.869000 1.000000 0.917647 0.000000
vn 0.310800 0.918300 -0.245200
v 1.567200 2.431300 -1.737100 1.000000 0.917647 0.000000
vn 0.000400 0.755600 -0.655100
v 0.830300 2.214900 -2.370400 1.000000 0.917647 0.000000
vn 0.894400 0.447200 -0.000000
v 2.936700 1.468300 -0.000000 1.000000 0.917647 0.000000
vn 0.856300 0.488700 -0.167200
v 2.700900 1.660400 -0.853300 1.000000 0.917647 0.000000
vn 0.870500 0.481100 -0.104100
v 2.441100 1.863900 -1.762300 1.000000 0.917647 0.000000
vn 0.609600 0.590100 -0.529300
v 2.396800 2.310100 -2.718800 1.000000 0.917647 0.000000
vn 0.024600 0.345600 -0.938100
v 1.057800 1.532300 -2.913600 1.000000 0.917647 0.000000
vn -0.532800 0.843100 -0.073200
v -1.526700 4.366500 -0.527400 0.596078 0.545098 0.000000
vn 0.009000 0.720200 -0.693700
v -0.453700 3.252300 -1.396500 1.000000 0.917647 0.000000
vn -0.649300 0.526100 -0.549200
v -1.396500 3.145200 -1.014600 1.000000 0.917647 0.000000
vn -0.060700 0.688500 -0.722700
v -0.199600 2.430900 -2.197900 1.000000 0.917647 0.000000
vn -0.352300 0.645700 -0.677500
v -1.130400 2.430900 -1.895400 1.000000 0.917647 0.000000
vn -0.435700 0.698400 -0.567800
v -2.062100 2.214900 -1.424600 1.000000 0.917647 0.000000
vn -0.050700 0.502000 -0.863400
v 0.023100 1.660400 -2.832400 1.000000 0.917647 0.000000
vn -0.262900 0.525700 -0.809000
v -0.863100 1.726100 -2.656200 1.000000 0.917647 0.000000
vn -0.470800 0.502400 -0.725200
v -1.683500 1.660400 -2.277900 1.000000 0.917647 0.000000
vn -0.549200 0.329600 -0.767900
v -2.570000 1.511800 -1.726100 1.000000 0.917647 0.000000
vn -0.249700 0.813800 0.524800
v -0.725900 3.349100 0.527400 1.000000 0.917647 0.000000
vn -0.761300 0.562600 0.322300
v -1.468300 3.252300 0.000000 1.000000 0.917647 0.000000
vn -0.451400 0.793000 0.409200
v -1.396500 2.792900 1.014600 1.000000 0.917647 0.000000
vn -0.520900 0.853300 -0.021900
v -2.296900 2.432100 -0.489400 1.000000 0.917647 0.000000
vn -0.627200 0.742600 0.234900
v -2.152000 2.430900 0.489400 1.000000 0.917647 0.000000
vn -0.530300 0.731800 0.428100
v -1.960800 2.214900 1.424600 1.000000 0.917647 0.000000
vn -0.847100 0.515700 -0.128400
v -3.688300 2.214900 -0.897200 0.596078 0.545098 0.000000
vn -0.760000 0.552100 0.342900
v -3.052000 1.844500 0.000000 1.000000 0.917647 0.000000
vn -0.679000 0.709900 0.187100
v -2.882200 1.660400 0.897200 1.000000 0.917647 0.000000
vn -0.434600 0.706000 0.559100
v -2.736800 1.468300 1.726100 1.000000 0.917647 0.000000
vn -0.369200 0.883900 0.287100
v 0.339100 3.479500 0.853300 1.000000 0.917647 0.000000
vn -0.244500 0.822500 0.513500
v -0.453700 2.936700 1.396500 1.000000 0.917647 0.000000
vn -0.102500 0.675000 0.730600
v 0.533400 3.014900 1.641600 1.000000 0.917647 0.000000
vn -0.354300 0.757400 0.548400
v -1.130400 2.430900 1.895400 1.000000 0.917647 0.000000
vn -0.088000 0.764800 0.638300
v -0.199600 2.430900 2.197900 1.000000 0.917647 0.000000
vn 0.236500 0.633100 0.737100
v 0.748900 2.214900 2.305000 1.000000 0.917647 0.000000
vn -0.507200 0.581200 0.636300
v -1.683500 1.660400 2.277900 1.000000 0.917647 0.000000
vn -0.377400 0.751300 0.541400
v -0.863100 1.726100 2.871900 1.000000 0.917647 0.000000
vn 0.260400 0.764600 0.589600
v 0.023100 1.660400 3.106400 1.000000 0.917647 0.000000
vn 0.409900 0.497900 0.764200
v 0.907500 1.468300 2.792900 1.000000 0.917647 0.000000
vn 0.341200 0.938200 0.057200
v 1.837500 4.949700 0.863100 0.792157 0.725490 0.000000
vn 0.473900 0.455000 0.753900
v 1.453400 2.702300 1.660800 1.000000 0.917647 0.000000
vn 0.884300 0.402000 0.237600
v 2.028600 2.702300 0.869000 1.000000 0.917647 0.000000
vn 0.505100 0.465400 0.726800
v 1.646200 1.660400 2.305000 1.000000 0.917647 0.000000
vn 0.718200 0.460300 0.521800
v 2.259500 1.726100 1.641600 1.000000 0.917647 0.000000
vn 0.847300 0.465400 0.255800
v 2.700900 1.660400 0.853300 1.000000 0.917647 0.000000
vn 0.942600 0.318100 0.101800
v 3.149500 0.763200 0.527400 1.000000 0.917647 0.000000
vn 0.958400 0.235300 -0.161500
v 3.149500 0.763200 -0.527400 1.000000 0.917647 0.000000
vn 0.932000 0.341500 0.121800
v 3.371100 0.000000 1.239000 1.000000 0.917647 0.000000
vn 0.993500 0.049200 -0.102700
v 3.283300 0.000000 -0.000000 1.000000 0.917647 0.000000
vn 0.951100 -0.000000 -0.309000
v 3.122600 0.000000 -1.014600 1.000000 0.917647 0.000000
vn 0.762800 -0.105800 0.637900
v 3.710500 -0.763200 2.262600 0.627451 0.572549 0.000000
vn 0.954400 -0.265000 -0.137700
v 3.326700 -0.837600 0.650300 1.000000 0.917647 0.000000
vn 0.945100 -0.257000 -0.201600
v 3.136700 -0.837600 -0.489400 1.000000 0.917647 0.000000
vn 0.870300 -0.235300 -0.432700
v 2.858000 -0.763200 -1.424600 1.000000 0.917647 0.000000
vn 0.440000 -0.711000 0.548500
v 2.624400 -1.468300 1.733800 1.000000 0.917647 0.000000
vn 0.731600 -0.672500 0.112100
v 2.821300 -1.660400 0.899200 1.000000 0.917647 0.000000
vn 0.829900 -0.554900 -0.057400
v 2.792900 -1.726100 -0.000000 1.000000 0.917647 0.000000
vn 0.871500 -0.429700 -0.236200
v 2.686600 -1.660400 -0.897200 1.000000 0.917647 0.000000
vn 0.811700 -0.236500 -0.534100
v 2.375800 -1.468300 -1.726100 1.000000 0.917647 0.000000
vn 0.382400 0.008400 -0.924000
v 1.555800 0.845200 -2.897700 1.000000 0.917647 0.000000
vn 0.089300 0.194500 -0.976800
v 0.471700 0.763200 -3.158300 1.000000 0.917647 0.000000
vn 0.584800 -0.067200 -0.808400
v 1.929900 0.000000 -2.656200 1.000000 0.917647 0.000000
vn 0.293100 -0.032400 -0.955500
v 1.014600 0.000000 -3.122600 1.000000 0.917647 0.000000
vn 0.037200 0.081500 -0.996000
v -0.000000 0.000000 -3.283300 1.000000 0.917647 0.000000
vn 0.680500 -0.235300 -0.694000
v 2.238000 -0.763200 -2.277900 1.000000 0.917647 0.000000
vn 0.435100 -0.259500 -0.862200
v 1.434700 -0.837600 -2.832000 1.000000 0.917647 0.000000
vn 0.332700 -0.150400 -0.931000
v 0.503900 -0.837600 -3.134400 1.000000 0.917647 0.000000
vn 0.237300 0.168200 -0.956700
v -0.419700 -1.397200 -3.470800 1.000000 0.917647 0.000000
vn 0.486900 -0.047700 -0.872200
v 1.683500 -1.660400 -2.277900 1.000000 0.917647 0.000000
vn 0.326600 -0.335100 -0.883800
v 0.863100 -1.726100 -2.656200 1.000000 0.917647 0.000000
vn 0.464700 -0.602100 -0.649200
v 0.028900 -1.949400 -3.144900 1.000000 0.917647 0.000000
vn -0.067800 -0.513500 -0.855400
v -0.729200 -2.132200 -3.864700 1.000000 0.917647 0.000000
vn -0.649100 0.197500 -0.734700
v -2.238000 0.763200 -2.277900 1.000000 0.917647 0.000000
vn -0.841800 -0.024100 -0.539200
v -2.958500 0.819200 -1.424600 1.000000 0.917647 0.000000
vn -0.619600 0.064100 -0.782300
v -1.929900 0.000000 -2.656200 1.000000 0.917647 0.000000
vn -0.753800 0.073800 -0.652900
v -2.656200 0.000000 -1.929900 1.000000 0.917647 0.000000
vn -0.930500 0.196400 -0.309100
v -3.122600 0.000000 -1.014600 1.000000 0.917647 0.000000
vn -0.558500 0.036100 -0.828700
v -1.422800 -0.854000 -3.144900 1.000000 0.917647 0.000000
vn -0.648500 -0.074900 -0.757500
v -2.250000 -0.837600 -2.239600 1.000000 0.917647 0.000000
vn -0.715200 0.269600 -0.644800
v -3.323500 -0.837600 -1.447800 1.000000 0.917647 0.000000
vn -0.847800 0.521700 0.094800
v -3.576300 -0.763200 -0.527400 1.000000 0.917647 0.000000
vn -0.635500 -0.512300 -0.577600
v -1.594200 -1.660400 -2.617500 1.000000 0.917647 0.000000
vn -0.519800 -0.470200 -0.713300
v -3.047300 -1.726100 -1.641600 1.000000 0.917647 0.000000
vn -0.990100 -0.062400 -0.125600
v -4.400500 -1.415600 -0.853300 0.596078 0.545098 0.000000
vn -0.787900 -0.168600 0.592200
v -3.724500 -1.468300 0.000000 0.988235 0.909804 0.000000
vn -0.890000 0.093500 0.446300
v -4.096000 0.763200 1.933200 0.670588 0.615686 0.000000
vn -0.483300 0.218600 0.847700
v -2.433600 0.763200 2.277900 1.000000 0.917647 0.000000
vn -0.904000 -0.427300 0.017700
v -3.483500 0.000000 1.092400 1.000000 0.917647 0.000000
vn -0.580100 -0.395200 0.712300
v -2.979700 0.000000 1.929900 1.000000 0.917647 0.000000
vn -0.617000 -0.114500 0.778600
v -1.929900 0.000000 2.656200 1.000000 0.917647 0.000000
vn -0.923900 -0.160000 0.347500
v -3.149500 -0.763200 0.527400 1.000000 0.917647 0.000000
vn -0.816100 -0.401500 0.415600
v -2.825300 -0.837600 1.447800 1.000000 0.917647 0.000000
vn -0.687600 -0.219000 0.692300
v -2.250000 -0.837600 2.239600 1.000000 0.917647 0.000000
vn -0.467000 -0.232700 0.853100
v -1.474800 -0.763200 2.832400 1.000000 0.917647 0.000000
vn -0.775700 -0.436300 0.455900
v -2.700900 -1.660400 0.853300 1.000000 1.000000 1.000000
vn -0.871600 -0.296800 0.390200
v -2.259500 -1.728700 1.825200 1.000000 0.917647 0.000000
vn -0.528200 -0.137100 0.837900
v -1.781300 -1.895200 2.530800 1.000000 0.917647 0.000000
vn -0.177400 -0.268300 0.946900
v -0.956100 -1.472800 2.792900 1.000000 0.917647 0.000000
vn 0.608400 0.154300 0.778500
v 0.471700 0.763200 3.489600 1.000000 0.917647 0.000000
vn 0.519700 0.233700 0.821800
v 1.474800 0.763200 2.832400 1.000000 0.917647 0.000000
vn 0.210000 -0.417100 0.884300
v 0.000000 0.000000 3.601100 1.000000 0.917647 0.000000
vn 0.441200 -0.094400 0.892400
v 1.014600 0.000000 3.122600 1.000000 0.917647 0.000000
vn 0.533900 0.023200 0.845300
v 1.929900 0.000000 2.656200 1.000000 0.917647 0.000000
vn -0.136200 -0.416200 0.899000
v -0.471700 -0.763200 3.158300 1.000000 0.917647 0.000000
vn 0.197500 -0.341100 0.919100
v 0.503900 -0.837600 3.134400 1.000000 0.917647 0.000000
vn 0.414400 -0.259100 0.872400
v 1.434700 -0.837600 2.832000 1.000000 0.917647 0.000000
vn 0.385000 -0.231000 0.893500
v 2.372700 -0.763200 2.277900 1.000000 0.917647 0.000000
vn 0.057700 -0.454000 0.889100
v -0.023100 -1.660400 2.832400 1.000000 0.917647 0.000000
vn 0.262900 -0.525700 0.809000
v 0.863100 -1.726100 2.656200 1.000000 0.917647 0.000000
vn 0.460700 -0.527700 0.713600
v 1.683500 -1.660400 2.277900 1.000000 0.917647 0.000000
vn 0.820000 -0.034800 -0.571200
v 2.656200 0.000000 -1.929900 1.000000 0.917647 0.000000
vn 0.803400 -0.027700 -0.594700
v 2.345000 1.009000 -2.315900 1.000000 0.917647 0.000000
vn 0.908300 0.192300 -0.371400
v 2.825300 0.837600 -1.447800 1.000000 0.917647 0.000000
vn -0.296700 0.151900 -0.942800
v -1.014600 0.000000 -3.122600 1.000000 0.917647 0.000000
vn -0.435100 0.259500 -0.862200
v -1.434700 0.837600 -2.832000 1.000000 0.917647 0.000000
vn -0.154700 0.259500 -0.953300
v -0.503900 0.837600 -3.134400 1.000000 0.917647 0.000000
vn -0.998200 0.020200 -0.056800
v -3.283300 0.000000 0.000000 1.000000 0.917647 0.000000
vn -0.959800 0.206100 -0.190500
v -3.412700 0.837600 0.531200 1.000000 0.917647 0.000000
vn -0.994000 -0.066400 -0.087100
v -3.270600 0.967100 -0.489400 1.000000 0.917647 0.000000
vn -0.461200 -0.378100 0.802700
v -1.014600 0.000000 3.450600 1.000000 0.917647 0.000000
vn -0.056400 0.314200 0.947700
v -0.503900 1.280300 4.620500 0.596078 0.545098 0.000000
vn -0.732900 0.219300 0.644000
v -1.434700 0.837600 3.163200 1.000000 0.917647 0.000000
vn 0.569500 0.402200 0.716900
v 2.879000 0.000000 1.964500 1.000000 0.917647 0.000000
vn 0.810200 0.397600 0.430800
v 2.825300 0.837600 1.447800 1.000000 0.917647 0.000000
vn 0.651600 0.309000 0.692800
v 2.250000 0.837600 2.239600 1.000000 0.917647 0.000000
vn 0.466200 -0.884000 0.035700
v 0.000000 -3.609500 -0.000000 1.000000 0.917647 0.000000
vn -0.001200 -0.866000 -0.500100
v -0.277300 -3.335000 -0.853300 1.000000 0.917647 0.000000
vn -0.008200 -0.989900 -0.141600
v 0.725900 -3.158300 -1.477100 1.000000 0.917647 0.000000
vn -0.223800 -0.802000 -0.553900
v -0.533400 -2.792900 -1.641600 1.000000 0.917647 0.000000
vn -0.275800 -0.739200 -0.614500
v 0.453700 -2.936700 -1.984600 1.000000 0.917647 0.000000
vn 0.493400 -0.772000 -0.400700
v 1.892300 -3.307200 -2.152000 1.000000 0.917647 0.000000
vn -0.205600 -0.915800 -0.345100
v -0.697000 -2.214900 -2.617500 1.000000 0.917647 0.000000
vn -0.118700 -0.687700 -0.716200
v 0.199600 -2.430900 -2.197900 1.000000 0.917647 0.000000
vn -0.028900 -0.257200 -0.965900
v 1.130400 -2.430900 -2.592100 1.000000 0.917647 0.000000
vn 0.643500 -0.002200 -0.765500
v 1.960800 -2.214900 -2.374300 1.000000 0.917647 0.000000
vn -0.150200 -0.988600 -0.005600
v -0.897200 -4.277200 0.000000 0.596078 0.545098 0.000000
vn -0.672900 -0.737400 0.058000
v -1.726100 -3.119100 0.000000 1.000000 0.917647 0.000000
vn -0.374200 -0.746700 -0.550000
v -1.187900 -3.229000 -0.863100 1.000000 0.917647 0.000000
vn -0.606400 -0.751900 0.258500
v -2.850400 -2.214900 0.000000 1.000000 0.917647 0.000000
vn -0.484300 -0.828700 -0.280400
v -2.526900 -2.430900 -0.869000 1.000000 0.917647 0.000000
vn -0.361300 -0.758300 -0.542600
v -1.453400 -2.430900 -1.660800 1.000000 0.917647 0.000000
vn 0.155900 -0.849600 0.503800
v -0.277300 -3.335000 0.853300 1.000000 0.917647 0.000000
vn 0.166300 -0.858000 0.485900
v -0.533400 -2.792900 1.912200 1.000000 0.917647 0.000000
vn -0.323800 -0.906400 0.271100
v -1.187900 -3.003700 1.142300 1.000000 0.917647 0.000000
vn 0.077700 -0.457000 0.886100
v -0.916100 -2.331400 2.579100 1.000000 0.917647 0.000000
vn -0.448800 -0.753900 0.479800
v -1.884500 -3.145500 2.366700 0.596078 0.545098 0.000000
vn -0.753800 -0.642700 0.136900
v -2.028600 -2.430900 1.151000 1.000000 0.917647 0.000000
vn 0.354800 -0.914700 0.193500
v 0.725900 -3.158300 0.527400 1.000000 0.917647 0.000000
vn 0.427300 -0.856000 0.291000
v 1.396500 -2.792900 1.014600 1.000000 0.917647 0.000000
vn 0.220400 -0.867600 0.445800
v 0.453700 -2.936700 1.396500 1.000000 0.917647 0.000000
vn 0.548300 -0.717800 0.429000
v 1.960800 -2.214900 1.424600 1.000000 0.917647 0.000000
vn 0.343800 -0.737600 0.581100
v 1.130400 -2.430900 1.895400 1.000000 0.917647 0.000000
vn 0.181300 -0.718700 0.671300
v 0.199600 -2.430900 2.197900 1.000000 0.917647 0.000000
vn 0.433600 -0.894800 0.106500
v 1.468300 -2.936700 -0.588100 1.000000 0.917647 0.000000
vn 0.829000 -0.558900 -0.020600
v 2.152000 -2.430900 -1.186000 1.000000 0.917647 0.000000
vn 0.630100 -0.765600 0.129700
v 2.152000 -2.430900 0.489400 1.000000 0.917647 0.000000
# 162 vertices, 0 vertices normals

f 1//1 2//2 3//3
f 2//2 4//4 5//5
f 2//2 5//5 3//3
f 3//3 5//5 6//6
f 4//4 7//7 8//8
f 4//4 8//8 5//5
f 5//5 8//8 9//9
f 5//5 9//9 6//6
f 6//6 9//9 10//10
f 7//7 11//11 12//12
f 7//7 12//12 8//8
f 8//8 12//12 13//13
f 8//8 13//13 9//9
f 9//9 13//13 14//14
f 9//9 14//14 10//10
f 10//10 14//14 15//15
f 1//1 3//3 16//16
f 3//3 6//6 17//17
f 3//3 17//17 16//16
f 16//16 17//17 18//18
f 6//6 10//10 19//19
f 6//6 19//19 17//17
f 17//17 19//19 20//20
f 17//17 20//20 18//18
f 18//18 20//20 21//21
f 10//10 15//15 22//22
f 10//10 22//22 19//19
f 19//19 22//22 23//23
f 19//19 23//23 20//20
f 20//20 23//23 24//24
f 20//20 24//24 21//21
f 21//21 24//24 25//25
f 1//1 16//16 26//26
f 16//16 18//18 27//27
f 16//16 27//27 26//26
f 26//26 27//27 28//28
f 18//18 21//21 29//29
f 18//18 29//29 27//27
f 27//27 29//29 30//30
f 27//27 30//30 28//28
f 28//28 30//30 31//31
f 21//21 25//25 32//32
f 21//21 32//32 29//29
f 29//29 32//32 33//33
f 29//29 33//33 30//30
f 30//30 33//33 34//34
f 30//30 34//34 31//31
f 31//31 34//34 35//35
f 1//1 26//26 36//36
f 26//26 28//28 37//37
f 26//26 37//37 36//36
f 36//36 37//37 38//38
f 28//28 31//31 39//39
f 28//28 39//39 37//37
f 37//37 39//39 40//40
f 37//37 40//40 38//38
f 38//38 40//40 41//41
f 31//31 35//35 42//42
f 31//31 42//42 39//39
f 39//39 42//42 43//43
f 39//39 43//43 40//40
f 40//40 43//43 44//44
f 40//40 44//44 41//41
f 41//41 44//44 45//45
f 1//1 36//36 2//2
f 36//36 38//38 46//46
f 36//36 46//46 2//2
f 2//2 46//46 4//4
f 38//38 41//41 47//47
f 38//38 47//47 46//46
f 46//46 47//47 48//48
f 46//46 48//48 4//4
f 4//4 48//48 7//7
f 41//41 45//45 49//49
f 41//41 49//49 47//47
f 47//47 49//49 50//50
f 47//47 50//50 48//48
f 48//48 50//50 51//51
f 48//48 51//51 7//7
f 7//7 51//51 11//11
f 11//11 52//52 53//53
f 52//52 54//54 55//55
f 52//52 55//55 53//53
f 53//53 55//55 56//56
f 54//54 57//57 58//58
f 54//54 58//58 55//55
f 55//55 58//58 59//59
f 55//55 59//59 56//56
f 56//56 59//59 60//60
f 57//57 61//61 62//62
f 57//57 62//62 58//58
f 58//58 62//62 63//63
f 58//58 63//63 59//59
f 59//59 63//63 64//64
f 59//59 64//64 60//60
f 60//60 64//64 65//65
f 15//15 66//66 67//67
f 66//66 68//68 69//69
f 66//66 69//69 67//67
f 67//67 69//69 70//70
f 68//68 71//71 72//72
f 68//68 72//72 69//69
f 69//69 72//72 73//73
f 69//69 73//73 70//70
f 70//70 73//73 74//74
f 71//71 65//65 75//75
f 71//71 75//75 72//72
f 72//72 75//75 76//76
f 72//72 76//76 73//73
f 73//73 76//76 77//77
f 73//73 77//77 74//74
f 74//74 77//77 78//78
f 25//25 79//79 80//80
f 79//79 81//81 82//82
f 79//79 82//82 80//80
f 80//80 82//82 83//83
f 81//81 84//84 85//85
f 81//81 85//85 82//82
f 82//82 85//85 86//86
f 82//82 86//86 83//83
f 83//83 86//86 87//87
f 84//84 78//78 88//88
f 84//84 88//88 85//85
f 85//85 88//88 89//89
f 85//85 89//89 86//86
f 86//86 89//89 90//90
f 86//86 90//90 87//87
f 87//87 90//90 91//91
f 35//35 92//92 93//93
f 92//92 94//94 95//95
f 92//92 95//95 93//93
f 93//93 95//95 96//96
f 94//94 97//97 98//98
f 94//94 98//98 95//95
f 95//95 98//98 99//99
f 95//95 99//99 96//96
f 96//96 99//99 100//100
f 97//97 91//91 101//101
f 97//97 101//101 98//98
f 98//98 101//101 102//102
f 98//98 102//102 99//99
f 99//99 102//102 103//103
f 99//99 103//103 100//100
f 100//100 103//103 104//104
f 45//45 105//105 106//106
f 105//105 107//107 108//108
f 105//105 108//108 106//106
f 106//106 108//108 109//109
f 107//107 110//110 111//111
f 107//107 111//111 108//108
f 108//108 111//111 112//112
f 108//108 112//112 109//109
f 109//109 112//112 113//113
f 110//110 104//104 114//114
f 110//110 114//114 111//111
f 111//111 114//114 115//115
f 111//111 115//115 112//112
f 112//112 115//115 116//116
f 112//112 116//116 113//113
f 113//113 116//116 61//61
f 65//65 71//71 60//60
f 71//71 68//68 117//117
f 71//71 117//117 60//60
f 60//60 117//117 56//56
f 68//68 66//66 118//118
f 68//68 118//118 117//117
f 117//117 118//118 119//119
f 117//117 119//119 56//56
f 56//56 119//119 53//53
f 66//66 15//15 14//14
f 66//66 14//14 118//118
f 118//118 14//14 13//13
f 118//118 13//13 119//119
f 119//119 13//13 12//12
f 119//119 12//12 53//53
f 53//53 12//12 11//11
f 78//78 84//84 74//74
f 84//84 81//81 120//120
f 84//84 120//120 74//74
f 74//74 120//120 70//70
f 81//81 79//79 121//121
f 81//81 121//121 120//120
f 120//120 121//121 122//122
f 120//120 122//122 70//70
f 70//70 122//122 67//67
f 79//79 25//25 24//24
f 79//79 24//24 121//121
f 121//121 24//24 23//23
f 121//121 23//23 122//122
f 122//122 23//23 22//22
f 122//122 22//22 67//67
f 67//67 22//22 15//15
f 91//91 97//97 87//87
f 97//97 94//94 123//123
f 97//97 123//123 87//87
f 87//87 123//123 83//83
f 94//94 92//92 124//124
f 94//94 124//124 123//123
f 123//123 124//124 125//125
f 123//123 125//125 83//83
f 83//83 125//125 80//80
f 92//92 35//35 34//34
f 92//92 34//34 124//124
f 124//124 34//34 33//33
f 124//124 33//33 125//125
f 125//125 33//33 32//32
f 125//125 32//32 80//80
f 80//80 32//32 25//25
f 104//104 110//110 100//100
f 110//110 107//107 126//126
f 110//110 126//126 100//100
f 100//100 126//126 96//96
f 107//107 105//105 127//127
f 107//107 127//127 126//126
f 126//126 127//127 128//128
f 126//126 128//128 96//96
f 96//96 128//128 93//93
f 105//105 45//45 44//44
f 105//105 44//44 127//127
f 127//127 44//44 43//43
f 127//127 43//43 128//128
f 128//128 43//43 42//42
f 128//128 42//42 93//93
f 93//93 42//42 35//35
f 61//61 57//57 113//113
f 57//57 54//54 129//129
f 57//57 129//129 113//113
f 113//113 129//129 109//109
f 54//54 52//52 130//130
f 54//54 130//130 129//129
f 129//129 130//130 131//131
f 129//129 131//131 109//109
f 109//109 131//131 106//106
f 52//52 11//11 51//51
f 52//52 51//51 130//130
f 130//130 51//51 50//50
f 130//130 50//50 131//131
f 131//131 50//50 49//49
f 131//131 49//49 106//106
f 106//106 49//49 45//45
f 132//132 133//133 134//134
f 133//133 135//135 136//136
f 133//133 136//136 134//134
f 134//134 136//136 137//137
f 135//135 138//138 139//139
f 135//135 139//139 136//136
f 136//136 139//139 140//140
f 136//136 140//140 137//137
f 137//137 140//140 141//141
f 138//138 78//78 77//77
f 138//138 77//77 139//139
f 139//139 77//77 76//76
f 139//139 76//76 140//140
f 140//140 76//76 75//75
f 140//140 75//75 141//141
f 141//141 75//75 65//65
f 132//132 142//142 133//133
f 142//142 143//143 144//144
f 142//142 144//144 133//133
f 133//133 144//144 135//135
f 143//143 145//145 146//146
f 143//143 146//146 144//144
f 144//144 146//146 147//147
f 144//144 147//147 135//135
f 135//135 147//147 138//138
f 145//145 91//91 90//90
f 145//145 90//90 146//146
f 146//146 90//90 89//89
f 146//146 89//89 147//147
f 147//147 89//89 88//88
f 147//147 88//88 138//138
f 138//138 88//88 78//78
f 132//132 148//148 142//142
f 148//148 149//149 150//150
f 148//148 150//150 142//142
f 142//142 150//150 143//143
f 149//149 151//151 152//152
f 149//149 152//152 150//150
f 150//150 152//152 153//153
f 150//150 153//153 143//143
f 143//143 153//153 145//145
f 151//151 104//104 103//103
f 151//151 103//103 152//152
f 152//152 103//103 102//102
f 152//152 102//102 153//153
f 153//153 102//102 101//101
f 153//153 101//101 145//145
f 145//145 101//101 91//91
f 132//132 154//154 148//148
f 154//154 155//155 156//156
f 154//154 156//156 148//148
f 148//148 156//156 149//149
f 155//155 157//157 158//158
f 155//155 158//158 156//156
f 156//156 158//158 159//159
f 156//156 159//159 149//149
f 149//149 159//159 151//151
f 157//157 61//61 116//116
f 157//157 116//116 158//158
f 158//158 116//116 115//115
f 158//158 115//115 159//159
f 159//159 115//115 114//114
f 159//159 114//114 151//151
f 151//151 114//114 104//104
f 132//132 134//134 154//154
f 134//134 137//137 160//160
f 134//134 160//160 154//154
f 154//154 160//160 155//155
f 137//137 141//141 161//161
f 137//137 161//161 160//160
f 160//160 161//161 162//162
f 160//160 162//162 155//155
f 155//155 162//162 157//157
f 141//141 65//65 64//64
f 141//141 64//64 161//161
f 161//161 64//64 63//63
f 161//161 63//63 162//162
f 162//162 63//63 62//62
f 162//162 62//62 157//157
f 157//157 62//62 61//61
# 320 faces, 0 coords texture

# End of File
